<svg xmlns="http://www.w3.org/2000/svg" width="600" height="300" viewBox="0 0 600 300"><rect width="100%" height="100%" fill="#333"/><path fill="#FFFFFF" d="M140.405 139.765h2.53l-5.38 17.35h-2.92l-3.79-11.86q-.16-.43-.29-1.05-.07.3-.14.56-.08.27-.16.49l-3.83 11.86h-2.93l-5.37-17.35h2.7q.42 0 .7.2.28.19.38.53l2.95 10.38q.1.38.19.83t.18.95q.1-.51.21-.95.12-.45.25-.83l3.41-10.38q.09-.28.37-.5.29-.23.69-.23h.95q.42 0 .69.2.26.21.39.53l3.4 10.38q.25.74.45 1.72.16-.95.35-1.72l2.95-10.38q.08-.3.37-.52.29-.21.7-.21m9.65 4.85q1.37 0 2.49.44t1.92 1.26 1.23 1.99q.43 1.18.43 2.63 0 1.46-.43 2.64t-1.23 2q-.8.83-1.92 1.28-1.12.44-2.49.44-1.38 0-2.51-.44-1.13-.45-1.92-1.28-.8-.82-1.24-2t-.44-2.64q0-1.45.44-2.63.44-1.17 1.24-1.99.79-.82 1.92-1.26t2.51-.44m0 10.4q1.54 0 2.27-1.03.74-1.03.74-3.03 0-1.99-.74-3.03-.73-1.05-2.27-1.05-1.56 0-2.31 1.05t-.75 3.03.75 3.02 2.31 1.04m10.96-9.47.18 1.39q.57-1.1 1.36-1.73.8-.63 1.88-.63.85 0 1.36.37l-.19 2.22q-.06.22-.17.31-.12.09-.31.09-.18 0-.53-.06-.36-.06-.69-.06-.49 0-.88.14-.38.15-.69.42-.3.27-.54.65-.23.38-.44.88v7.58h-2.96v-12.31h1.74q.46 0 .64.16t.24.58m6.33-6.26h2.97v10.21h.55q.3 0 .47-.08.18-.08.36-.32l3.06-3.78q.19-.25.42-.38.24-.13.61-.13h2.71l-3.83 4.57q-.41.54-.89.83.26.18.45.42.2.24.38.51l4.11 5.98h-2.68q-.35 0-.6-.11-.25-.12-.42-.42l-3.14-4.67q-.17-.27-.35-.36-.18-.08-.54-.08h-.67v5.64h-2.97zm12.93 5.52h2.97v12.31h-2.97zm3.38-3.59q0 .38-.16.72-.15.34-.41.59t-.61.4q-.34.15-.74.15-.38 0-.73-.15-.34-.15-.59-.4t-.4-.59-.15-.72q0-.4.15-.74.15-.35.4-.6.25-.26.59-.41.35-.15.73-.15.4 0 .74.15.35.15.61.41.26.25.41.6.16.34.16.74m5.18 4.13.21.97q.37-.37.78-.69.42-.32.88-.54t.99-.35q.53-.12 1.15-.12 1.01 0 1.79.34t1.3.96.79 1.47q.27.86.27 1.89v7.84h-2.96v-7.84q0-1.12-.52-1.74-.51-.62-1.57-.62-.77 0-1.44.35t-1.27.95v8.9h-2.96v-12.31h1.81q.57 0 .75.54m15.47 5.31q.55 0 .96-.15t.68-.41.41-.64q.14-.37.14-.81 0-.91-.55-1.45-.55-.53-1.64-.53t-1.64.53q-.54.54-.54 1.45 0 .43.14.8.13.37.4.64t.69.42q.41.15.95.15m3.35 7.01q0-.36-.22-.59-.21-.22-.58-.35-.38-.13-.87-.19-.5-.06-1.06-.09t-1.15-.05q-.6-.02-1.16-.1-.49.28-.8.65-.3.37-.3.87 0 .32.16.6t.51.49q.36.2.92.32.57.11 1.38.11.83 0 1.43-.13.6-.12.99-.34.39-.23.57-.53.18-.31.18-.67m-.59-12.44h3.54v1.1q0 .53-.63.65l-1.11.2q.25.64.25 1.4 0 .91-.36 1.65-.37.73-1.02 1.25-.64.52-1.53.8-.88.28-1.9.28-.36 0-.69-.04-.34-.03-.66-.09-.58.35-.58.78 0 .37.34.54.34.18.91.25.56.07 1.28.09t1.48.08q.75.06 1.47.21t1.29.47q.56.33.9.88.35.56.35 1.44 0 .81-.41 1.58-.4.77-1.16 1.37t-1.87.97q-1.11.36-2.53.36-1.39 0-2.42-.27t-1.72-.72q-.68-.45-1.02-1.04-.33-.58-.33-1.22 0-.86.52-1.45.52-.58 1.43-.93-.49-.25-.78-.67t-.29-1.1q0-.28.11-.57.1-.3.3-.58.19-.29.49-.55t.71-.46q-.93-.51-1.47-1.35-.53-.84-.53-1.96 0-.92.36-1.65.37-.74 1.02-1.26.66-.53 1.55-.8.9-.28 1.95-.28.79 0 1.49.16.7.17 1.27.48m27.12 3.21q0 1.91-.63 3.51-.64 1.59-1.79 2.75-1.15 1.15-2.77 1.78-1.62.64-3.6.64h-6.62v-17.35h6.62q1.98 0 3.6.64t2.77 1.79q1.15 1.14 1.79 2.74.63 1.6.63 3.5m-3.31 0q0-1.42-.38-2.56-.38-1.13-1.09-1.92-.71-.78-1.73-1.2-1.01-.42-2.28-.42h-3.38v12.21h3.38q1.27 0 2.28-.42 1.02-.42 1.73-1.2.71-.79 1.09-1.92.38-1.14.38-2.57m5.78-3.63h2.98v12.31h-2.98zm3.39-3.59q0 .38-.16.72-.15.34-.41.59t-.61.4-.74.15-.73-.15-.59-.4-.4-.59-.15-.72q0-.4.15-.74.15-.35.4-.6.25-.26.59-.41t.73-.15.74.15.61.41q.26.25.41.6.16.34.16.74m5.23 4.33.18 1.39q.58-1.1 1.37-1.73t1.87-.63q.85 0 1.37.37l-.19 2.22q-.06.22-.18.31-.11.09-.3.09-.18 0-.54-.06-.35-.06-.69-.06-.49 0-.87.14-.39.15-.69.42-.31.27-.54.65-.24.38-.44.88v7.58h-2.97v-12.31h1.74q.46 0 .64.16t.24.58m12.68 15.7v-22.69h2.31v22.69zm22.1-19.85-.81 1.52q-.14.26-.3.37-.17.11-.41.11-.25 0-.54-.18-.3-.19-.7-.42-.41-.22-.96-.41-.54-.19-1.29-.19-.67 0-1.17.17-.51.16-.85.45-.34.28-.51.69-.17.4-.17.88 0 .61.34 1.02.35.41.91.69.56.29 1.28.52t1.48.49q.76.25 1.48.6.72.34 1.28.86t.91 1.28q.34.75.34 1.83 0 1.18-.4 2.21-.41 1.02-1.18 1.78-.77.77-1.89 1.2-1.12.44-2.56.44-.82 0-1.63-.16-.8-.16-1.54-.46t-1.39-.72q-.64-.42-1.15-.94l.95-1.55q.12-.16.31-.28.19-.11.41-.11.3 0 .65.24.35.25.83.55t1.12.55q.64.24 1.54.24 1.38 0 2.14-.65.75-.66.75-1.88 0-.68-.34-1.12-.34-.43-.91-.72-.56-.3-1.28-.5t-1.46-.44q-.75-.24-1.47-.58t-1.28-.88q-.57-.54-.91-1.35t-.34-1.99q0-.95.38-1.85t1.1-1.6q.72-.69 1.77-1.11 1.06-.42 2.43-.42 1.53 0 2.83.48 1.29.48 2.21 1.34m6.75 15.91q-1.61 0-2.46-.9-.86-.91-.86-2.51v-6.87h-1.26q-.24 0-.41-.16-.17-.15-.17-.47v-1.17l1.98-.33.63-3.36q.06-.24.22-.37.17-.13.44-.13h1.53v3.88h3.29v2.11h-3.29v6.67q0 .58.28.9.29.32.78.32.27 0 .46-.06.19-.07.32-.14.14-.07.25-.14.11-.06.22-.06.13 0 .21.06.09.07.18.2l.89 1.44q-.65.54-1.49.82-.84.27-1.74.27m11.33-3.37v-2.08q-1.28.06-2.16.23-.88.16-1.4.41-.53.25-.76.59-.23.33-.23.73 0 .78.46 1.12.47.33 1.21.33.91 0 1.58-.33.66-.33 1.3-1m-6.26-6.47-.53-.95q2.12-1.94 5.11-1.94 1.08 0 1.93.35.85.36 1.44.99t.9 1.5q.3.88.3 1.92v7.78h-1.34q-.42 0-.65-.13-.23-.12-.36-.51l-.26-.88q-.47.42-.92.73-.44.32-.92.54-.48.21-1.03.33-.54.11-1.2.11-.78 0-1.44-.21t-1.14-.63-.75-1.04q-.26-.63-.26-1.45 0-.47.16-.93.15-.47.51-.89.35-.42.91-.79.57-.37 1.39-.65.82-.27 1.91-.45 1.1-.17 2.5-.21v-.72q0-1.23-.53-1.83-.53-.59-1.52-.59-.72 0-1.2.17-.47.17-.83.38t-.65.37q-.3.17-.66.17-.31 0-.53-.16-.21-.16-.34-.38m16.44 3.19q.55 0 .96-.15.4-.15.67-.41t.41-.64q.14-.37.14-.81 0-.91-.55-1.45-.54-.53-1.63-.53-1.1 0-1.64.53-.55.54-.55 1.45 0 .43.14.8t.41.64.68.42q.42.15.96.15m3.34 7.01q0-.36-.21-.59-.22-.22-.59-.35t-.87-.19-1.06-.09q-.55-.03-1.15-.05-.59-.02-1.16-.1-.49.28-.79.65-.31.37-.31.87 0 .32.16.6t.52.49q.35.2.92.32.56.11 1.38.11t1.42-.13q.6-.12.99-.34.39-.23.57-.53.18-.31.18-.67m-.58-12.44h3.54v1.1q0 .53-.64.65l-1.1.2q.25.64.25 1.4 0 .91-.37 1.65-.36.73-1.01 1.25t-1.53.8-1.9.28q-.36 0-.7-.04-.34-.03-.66-.09-.58.35-.58.78 0 .37.35.54.34.18.9.25.57.07 1.29.09t1.47.08q.76.06 1.48.21t1.28.47q.57.33.91.88.34.56.34 1.44 0 .81-.4 1.58t-1.17 1.37q-.76.6-1.87.97-1.11.36-2.52.36-1.4 0-2.43-.27t-1.71-.72q-.69-.45-1.02-1.04-.34-.58-.34-1.22 0-.86.52-1.45.52-.58 1.44-.93-.5-.25-.78-.67-.29-.42-.29-1.1 0-.28.1-.57.1-.3.3-.58.2-.29.5-.55t.71-.46q-.94-.51-1.47-1.35-.54-.84-.54-1.96 0-.92.37-1.65.36-.74 1.02-1.26.65-.53 1.55-.8.89-.28 1.95-.28.79 0 1.48.16.7.17 1.28.48m5.5-.42h2.98v12.31h-2.98zm3.39-3.59q0 .38-.16.72-.15.34-.41.59t-.61.4-.74.15-.73-.15-.59-.4-.4-.59-.15-.72q0-.4.15-.74.15-.35.4-.6.25-.26.59-.41t.73-.15.74.15.61.41q.26.25.41.6.16.34.16.74m5.18 4.13.21.97q.37-.37.78-.69.42-.32.88-.54t.99-.35q.53-.12 1.15-.12 1.01 0 1.79.34t1.3.96.79 1.47q.27.86.27 1.89v7.84h-2.96v-7.84q0-1.12-.52-1.74-.51-.62-1.57-.62-.77 0-1.44.35t-1.27.95v8.9h-2.97v-12.31h1.82q.57 0 .75.54m15.47 5.31q.55 0 .96-.15t.68-.41.41-.64q.13-.37.13-.81 0-.91-.54-1.45-.55-.53-1.64-.53t-1.64.53q-.54.54-.54 1.45 0 .43.13.8.14.37.41.64t.69.42q.41.15.95.15m3.35 7.01q0-.36-.22-.59-.21-.22-.59-.35-.37-.13-.87-.19-.49-.06-1.05-.09t-1.15-.05q-.6-.02-1.16-.1-.49.28-.8.65t-.31.87q0 .32.17.6.16.28.51.49.36.2.92.32.56.11 1.38.11.83 0 1.43-.13.6-.12.99-.34.39-.23.57-.53.18-.31.18-.67m-.59-12.44h3.54v1.1q0 .53-.64.65l-1.1.2q.25.64.25 1.4 0 .91-.36 1.65-.37.73-1.02 1.25t-1.53.8-1.9.28q-.36 0-.7-.04-.33-.03-.66-.09-.57.35-.57.78 0 .37.34.54.34.18.91.25.56.07 1.28.09t1.48.08q.75.06 1.47.21t1.29.47q.56.33.9.88.34.56.34 1.44 0 .81-.4 1.58t-1.16 1.37-1.87.97q-1.11.36-2.53.36-1.39 0-2.42-.27-1.04-.27-1.72-.72t-1.02-1.04q-.34-.58-.34-1.22 0-.86.53-1.45.52-.58 1.43-.93-.49-.25-.78-.67t-.29-1.1q0-.28.1-.57.11-.3.3-.58.2-.29.5-.55t.71-.46q-.94-.51-1.47-1.35t-.53-1.96q0-.92.36-1.65.37-.74 1.02-1.26.66-.53 1.55-.8.89-.28 1.95-.28.79 0 1.49.16.69.17 1.27.48m11.76 16.02v-22.69h2.3v22.69zm15.28-13.23h2.01q.91 0 1.59-.22.68-.23 1.12-.63.44-.41.65-.96.22-.55.22-1.21 0-1.32-.87-2.03t-2.66-.71h-2.06zm5.97 2.69 4.35 6.41h-2.92q-.83 0-1.2-.65l-3.65-5.55q-.2-.32-.45-.45-.24-.13-.72-.13h-1.38v6.78h-3.23v-17.35h5.29q1.76 0 3.03.36 1.27.37 2.08 1.03t1.19 1.58.38 2.02q0 .88-.25 1.66-.26.78-.75 1.41-.48.64-1.2 1.12-.71.48-1.62.75.31.18.57.43.27.25.48.58m8.1-1.16h5.59q0-.58-.16-1.09t-.48-.89q-.33-.39-.83-.61-.49-.22-1.15-.22-1.29 0-2.03.73-.73.73-.94 2.08m7.56 1.79h-7.62q.07.94.34 1.63.26.69.69 1.14.44.45 1.03.68.59.22 1.31.22t1.25-.17q.52-.17.91-.37.39-.21.68-.37.3-.17.57-.17.37 0 .55.27l.86 1.08q-.5.58-1.11.97t-1.28.62q-.66.24-1.35.33-.69.1-1.34.1-1.28 0-2.39-.43-1.1-.42-1.92-1.26-.81-.83-1.28-2.06t-.47-2.85q0-1.26.41-2.37t1.17-1.93 1.86-1.3 2.48-.48q1.16 0 2.14.37.99.37 1.7 1.08.7.72 1.11 1.76.4 1.03.4 2.37 0 .67-.15.9-.14.24-.55.24m5.88-2.93v5.52q.51.61 1.1.86t1.29.25q.67 0 1.21-.25t.92-.77q.38-.51.58-1.3.21-.78.21-1.85 0-1.08-.18-1.83-.17-.75-.5-1.22-.32-.47-.78-.68-.46-.22-1.05-.22-.93 0-1.57.39-.65.39-1.23 1.1m-.39-3.06.24 1.14q.75-.85 1.71-1.38t2.26-.53q1.01 0 1.84.42t1.44 1.22.94 1.97.33 2.68q0 1.38-.38 2.55-.37 1.18-1.06 2.04-.69.87-1.67 1.35-.97.49-2.19.49-1.03 0-1.76-.32t-1.31-.88v5.04h-2.96v-16.33h1.81q.58 0 .76.54m16.51-.73q1.37 0 2.49.44t1.92 1.26 1.23 1.99q.43 1.18.43 2.63 0 1.46-.43 2.64t-1.23 2q-.8.83-1.92 1.28-1.12.44-2.49.44-1.38 0-2.51-.44-1.13-.45-1.93-1.28-.79-.82-1.23-2t-.44-2.64q0-1.45.44-2.63.44-1.17 1.23-1.99.8-.82 1.93-1.26t2.51-.44m0 10.4q1.53 0 2.27-1.03t.74-3.03q0-1.99-.74-3.03-.74-1.05-2.27-1.05-1.56 0-2.31 1.05t-.75 3.03.75 3.02 2.31 1.04m16.52-8.88-.67 1.07q-.12.19-.25.27t-.34.08-.46-.12-.57-.27-.74-.27q-.41-.12-.98-.12-.87 0-1.37.37t-.5.97q0 .4.26.67t.68.47q.43.2.97.37.54.16 1.1.35t1.1.44q.54.24.96.62.43.38.69.91.25.53.25 1.27 0 .89-.31 1.64-.32.75-.95 1.29-.62.55-1.54.86-.92.3-2.12.3-.63 0-1.24-.11-.6-.12-1.16-.32t-1.03-.48q-.48-.28-.84-.6l.69-1.13q.13-.2.31-.31t.45-.11q.28 0 .53.16.24.15.57.33.32.18.76.34t1.11.16q.53 0 .9-.13.38-.13.63-.33.24-.2.36-.47.11-.27.11-.56 0-.43-.26-.71-.25-.28-.68-.48t-.97-.37q-.55-.16-1.12-.35t-1.11-.45q-.55-.26-.98-.65-.42-.4-.68-.98-.26-.57-.26-1.39 0-.75.3-1.44.3-.68.88-1.19.59-.51 1.46-.82.87-.3 2.01-.3 1.27 0 2.31.42 1.05.42 1.74 1.1m2.46-1.33h2.98v12.31h-2.98zm3.39-3.59q0 .38-.16.72t-.41.59q-.26.25-.61.4t-.74.15-.73-.15-.59-.4q-.26-.25-.41-.59t-.15-.72q0-.4.15-.74.15-.35.41-.6.25-.26.59-.41t.73-.15.74.15.61.41q.25.25.41.6.16.34.16.74m6.72 16.09q-1.61 0-2.47-.9-.86-.91-.86-2.51v-6.87h-1.26q-.24 0-.41-.16-.16-.15-.16-.47v-1.17l1.98-.33.62-3.36q.06-.24.23-.37t.43-.13h1.54v3.88h3.28v2.11h-3.28v6.67q0 .58.28.9t.77.32q.28 0 .46-.06.19-.07.33-.14t.24-.14q.11-.06.22-.06.13 0 .22.06.08.07.18.2l.88 1.44q-.64.54-1.48.82-.84.27-1.74.27m10.27-12.69q1.37 0 2.49.44t1.92 1.26 1.23 1.99q.43 1.18.43 2.63 0 1.46-.43 2.64t-1.23 2q-.8.83-1.92 1.28-1.12.44-2.49.44-1.38 0-2.51-.44-1.13-.45-1.93-1.28-.79-.82-1.23-2t-.44-2.64q0-1.45.44-2.63.44-1.17 1.23-1.99.8-.82 1.93-1.26t2.51-.44m0 10.4q1.53 0 2.27-1.03t.74-3.03q0-1.99-.74-3.03-.74-1.05-2.27-1.05-1.56 0-2.31 1.05t-.75 3.03.75 3.02 2.31 1.04m10.95-9.47.18 1.39q.58-1.1 1.37-1.73t1.87-.63q.86 0 1.37.37l-.19 2.22q-.06.22-.17.31-.12.09-.31.09-.18 0-.53-.06-.36-.06-.69-.06-.5 0-.88.14-.38.15-.69.42t-.54.65-.44.88v7.58h-2.96v-12.31h1.74q.45 0 .63.16t.24.58m15.15-.74h2.37l-6.7 15.69q-.14.32-.35.48t-.64.16h-2.21l2.31-4.94-4.98-11.39h2.6q.35 0 .55.17.2.16.29.38l2.62 6.38q.13.33.22.65.09.33.17.66l.22-.66q.11-.33.24-.66l2.47-6.37q.1-.24.32-.4.22-.15.5-.15"/></svg>