<svg xmlns="http://www.w3.org/2000/svg" width="600" height="200" viewBox="0 0 600 200"><rect width="100%" height="100%" fill="#228B22"/><path fill="#FFFFFF" d="M130.64 100.185h8.88v10.82q-2.03 1.5-4.33 2.19-2.31.7-4.93.7-3.28 0-5.93-1.02-2.66-1.02-4.54-2.83-1.87-1.81-2.89-4.33t-1.02-5.5q0-3.01.98-5.53.98-2.51 2.79-4.33 1.8-1.81 4.37-2.81t5.77-1q1.63 0 3.05.26 1.41.26 2.62.71 1.21.46 2.21 1.11 1 .64 1.84 1.42l-1.43 2.26q-.33.53-.87.65t-1.16-.26q-.61-.36-1.23-.71-.61-.35-1.36-.61-.74-.26-1.68-.42-.93-.17-2.15-.17-1.98 0-3.58.67-1.6.66-2.73 1.9t-1.74 2.98-.61 3.88q0 2.3.65 4.1.66 1.81 1.85 3.05 1.2 1.25 2.88 1.91 1.69.66 3.76.66 1.48 0 2.64-.32 1.17-.31 2.28-.85v-4.85h-3.37q-.48 0-.75-.26-.27-.27-.27-.66zm13.12-5.57h4.59v18.98h-4.59zm5.22-5.53q0 .59-.24 1.11t-.64.9q-.4.39-.94.62-.53.24-1.14.24-.59 0-1.12-.24-.53-.23-.92-.62-.39-.38-.62-.9t-.23-1.11q0-.61.23-1.15t.62-.92q.39-.39.92-.62.53-.24 1.12-.24.61 0 1.14.24.54.23.94.62.4.38.64.92t.24 1.15m10.36 24.81q-2.48 0-3.8-1.4-1.33-1.4-1.33-3.86v-10.6h-1.94q-.37 0-.63-.24t-.26-.72v-1.81l3.05-.5.97-5.18q.09-.37.35-.58.26-.2.66-.2h2.37v5.98h5.07v3.25h-5.07v10.29q0 .89.44 1.39.43.49 1.19.49.43 0 .71-.1.29-.1.5-.21t.38-.21.33-.1q.21 0 .34.1t.27.3l1.37 2.22q-1 .84-2.29 1.26-1.3.43-2.68.43m22.77-10.4h8.51l-3.26-8.9q-.24-.59-.49-1.41-.26-.81-.52-1.75-.24.94-.5 1.76-.26.83-.5 1.44zm6.79-16.65 10.51 26.75h-3.85q-.65 0-1.05-.32-.41-.33-.61-.81l-2-5.46h-11.08l-2 5.46q-.15.43-.58.78-.42.35-1.05.35h-3.89l10.53-26.75zm24.48 21.13v-8.51q-.78-.95-1.7-1.34-.91-.38-1.97-.38-1.03 0-1.87.38-.83.39-1.42 1.18t-.91 2q-.31 1.21-.31 2.86 0 1.66.27 2.82.27 1.15.76 1.88.5.73 1.23 1.06.72.32 1.61.32 1.42 0 2.42-.59t1.89-1.68m0-21.87h4.57v27.49h-2.8q-.9 0-1.15-.83l-.38-1.83q-1.15 1.31-2.64 2.12-1.49.82-3.47.82-1.55 0-2.85-.65-1.29-.65-2.23-1.88-.93-1.23-1.44-3.04t-.51-4.14q0-2.11.57-3.93.58-1.81 1.65-3.14t2.57-2.08 3.37-.75q1.59 0 2.72.5t2.02 1.35zm20.99 21.87v-8.51q-.77-.95-1.69-1.34-.92-.38-1.97-.38-1.04 0-1.87.38-.83.39-1.42 1.18t-.91 2q-.31 1.21-.31 2.86 0 1.66.26 2.82.27 1.15.77 1.88t1.22 1.06q.72.32 1.61.32 1.43 0 2.43-.59t1.88-1.68m0-21.87h4.57v27.49h-2.79q-.91 0-1.15-.83l-.39-1.83q-1.14 1.31-2.63 2.12-1.49.82-3.47.82-1.56 0-2.85-.65-1.3-.65-2.23-1.88t-1.44-3.04-.51-4.14q0-2.11.57-3.93.58-1.81 1.65-3.14t2.57-2.08 3.37-.75q1.59 0 2.72.5t2.01 1.35zm17.93 18.22v-3.81h9.58v3.81zm15.69-11.76 14.67 7.64v1.85l-14.67 7.66v-3.26q0-.37.18-.69.19-.31.61-.51l6.72-3.46q.87-.43 1.9-.67-1.03-.24-1.9-.66l-6.72-3.45q-.42-.22-.61-.52-.18-.31-.18-.68zm42.6 7.62h8.88v10.82q-2.03 1.5-4.34 2.19-2.3.7-4.93.7-3.27 0-5.92-1.02-2.66-1.02-4.54-2.83-1.87-1.81-2.89-4.33t-1.02-5.5q0-3.01.98-5.53.98-2.51 2.78-4.33 1.81-1.81 4.38-2.81t5.77-1q1.63 0 3.05.26 1.41.26 2.62.71 1.21.46 2.21 1.11 1 .64 1.83 1.42l-1.42 2.26q-.33.53-.87.65t-1.16-.26q-.62-.36-1.23-.71t-1.36-.61q-.74-.26-1.68-.42-.93-.17-2.15-.17-1.98 0-3.58.67-1.6.66-2.73 1.9t-1.74 2.98-.61 3.88q0 2.3.65 4.1.66 1.81 1.85 3.05 1.2 1.25 2.88 1.91t3.76.66q1.48 0 2.64-.32 1.17-.31 2.28-.85v-4.85h-3.37q-.48 0-.75-.26-.27-.27-.27-.66zm13.12-5.57h4.59v18.98h-4.59zm5.22-5.53q0 .59-.24 1.11t-.64.9q-.4.39-.94.62-.53.24-1.14.24-.6 0-1.12-.24-.53-.23-.92-.62-.39-.38-.62-.9t-.23-1.11q0-.61.23-1.15t.62-.92q.39-.39.92-.62.52-.24 1.12-.24.61 0 1.14.24.54.23.94.62.4.38.64.92t.24 1.15m10.36 24.81q-2.48 0-3.81-1.4-1.32-1.4-1.32-3.86v-10.6h-1.94q-.37 0-.63-.24t-.26-.72v-1.81l3.05-.5.97-5.18q.09-.37.35-.58.26-.2.66-.2h2.37v5.98h5.07v3.25h-5.07v10.29q0 .89.44 1.39.43.49 1.19.49.43 0 .71-.1.29-.1.5-.21t.38-.21.33-.1q.21 0 .34.1t.27.3l1.37 2.22q-1 .84-2.29 1.26-1.3.43-2.68.43m35.52-6.61q.4 0 .72.32l1.96 2.12q-1.63 2.02-4.01 3.09-2.37 1.08-5.7 1.08-2.98 0-5.36-1.02t-4.06-2.83-2.58-4.33-.9-5.5q0-3.01.96-5.52.97-2.5 2.71-4.32 1.75-1.81 4.18-2.82 2.42-1.01 5.36-1.01 2.92 0 5.19.97 2.27.96 3.86 2.51l-1.67 2.31q-.15.23-.38.39-.23.17-.63.17-.28 0-.58-.16-.29-.16-.65-.39-.35-.23-.81-.51-.46-.27-1.07-.5-.61-.24-1.42-.39-.8-.16-1.86-.16-1.79 0-3.28.64t-2.56 1.85q-1.08 1.21-1.67 2.96t-.59 3.98q0 2.26.64 4.02t1.73 2.96 2.57 1.84 3.18.64q1.02 0 1.84-.11.83-.11 1.52-.35.69-.25 1.31-.62.62-.38 1.23-.94.19-.16.39-.27.2-.1.43-.1m13.78-12.97q2.11 0 3.84.69 1.73.68 2.96 1.94t1.89 3.07q.67 1.81.67 4.05 0 2.26-.67 4.07-.66 1.82-1.89 3.09-1.23 1.28-2.96 1.96-1.73.69-3.84.69-2.13 0-3.87-.69-1.74-.68-2.97-1.96-1.23-1.27-1.9-3.09-.68-1.81-.68-4.07 0-2.24.68-4.05.67-1.81 1.9-3.07t2.97-1.94q1.74-.69 3.87-.69m0 16.04q2.37 0 3.5-1.59 1.14-1.59 1.14-4.66t-1.14-4.68q-1.13-1.61-3.5-1.61-2.41 0-3.56 1.62-1.16 1.62-1.16 4.67t1.16 4.65q1.15 1.6 3.56 1.6m17.43 3.24h-4.57v-18.98h2.79q.89 0 1.17.83l.29 1.41q.5-.56 1.05-1.02.54-.46 1.16-.8.62-.33 1.33-.52.72-.2 1.57-.2 1.79 0 2.95.97 1.15.98 1.73 2.59.44-.95 1.11-1.62.66-.68 1.46-1.1.8-.43 1.69-.63.9-.21 1.81-.21 1.57 0 2.79.48 1.22.49 2.05 1.41.84.93 1.27 2.26.44 1.33.44 3.05v12.08h-4.57v-12.08q0-1.81-.8-2.73-.8-.91-2.33-.91-.7 0-1.31.24-.6.24-1.05.69t-.71 1.14q-.26.68-.26 1.57v12.08h-4.59v-12.08q0-1.91-.77-2.78-.76-.86-2.24-.86-1 0-1.86.49t-1.6 1.34zm30.98 0h-4.57v-18.98h2.8q.89 0 1.16.83l.3 1.41q.5-.56 1.04-1.02.55-.46 1.17-.8.62-.33 1.33-.52.71-.2 1.57-.2 1.79 0 2.95.97 1.15.98 1.73 2.59.44-.95 1.11-1.62.66-.68 1.46-1.1.79-.43 1.69-.63.9-.21 1.8-.21 1.58 0 2.8.48 1.22.49 2.05 1.41.83.93 1.27 2.26.43 1.33.43 3.05v12.08h-4.57v-12.08q0-1.81-.79-2.73-.8-.91-2.33-.91-.71 0-1.31.24t-1.05.69q-.46.45-.71 1.14-.26.68-.26 1.57v12.08h-4.59v-12.08q0-1.91-.77-2.78-.77-.86-2.25-.86-1 0-1.86.49t-1.6 1.34zm26.57-18.98h4.59v18.98h-4.59zm5.22-5.53q0 .59-.24 1.11t-.64.9q-.4.39-.94.62-.53.24-1.14.24-.6 0-1.12-.24-.53-.23-.92-.62-.39-.38-.62-.9t-.23-1.11q0-.61.23-1.15t.62-.92q.39-.39.92-.62.52-.24 1.12-.24.61 0 1.14.24.54.23.94.62.4.38.64.92t.24 1.15m10.36 24.81q-2.48 0-3.81-1.4-1.32-1.4-1.32-3.86v-10.6h-1.94q-.37 0-.63-.24t-.26-.72v-1.81l3.05-.5.97-5.18q.09-.37.35-.58.26-.2.66-.2h2.37v5.98h5.07v3.25h-5.07v10.29q0 .89.44 1.39.43.49 1.19.49.43 0 .71-.1.29-.1.5-.21t.38-.21.33-.1q.21 0 .34.1t.27.3l1.37 2.22q-1 .84-2.29 1.26-1.3.43-2.68.43"/></svg>