<svg xmlns="http://www.w3.org/2000/svg" width="300" height="150" viewBox="0 0 300 150"><rect width="100%" height="100%" fill="#DDDDDD"/><path fill="#999999" d="M73.385 65.4v2.98h-5.88v16.54h-3.63V68.38h-5.89V65.4zm2.15 5.67h3.35v13.85h-3.35zm3.81-4.04q0 .43-.18.81-.17.38-.46.66-.29.29-.69.46-.39.17-.83.17-.43 0-.82-.17-.38-.17-.67-.46-.28-.28-.45-.66t-.17-.81q0-.44.17-.83.17-.4.45-.68.29-.28.67-.45.39-.17.82-.17.44 0 .83.17.4.17.69.45t.46.68q.18.39.18.83m5.57 9.37h6.29q0-.65-.18-1.22t-.55-1.01q-.36-.43-.92-.68t-1.3-.25q-1.45 0-2.28.83-.83.82-1.06 2.33m8.51 2.01h-8.57q.08 1.07.37 1.85.3.77.79 1.28.48.5 1.15.75t1.48.25 1.4-.18q.58-.19 1.02-.42t.77-.42.64-.19q.42 0 .62.31l.96 1.21q-.55.65-1.24 1.09t-1.44.7q-.75.27-1.52.37-.78.11-1.51.11-1.44 0-2.68-.48-1.25-.48-2.16-1.41-.92-.94-1.45-2.33-.53-1.38-.53-3.2 0-1.42.46-2.67t1.32-2.17q.86-.93 2.09-1.47 1.24-.54 2.79-.54 1.31 0 2.42.42 1.1.42 1.9 1.22.8.81 1.25 1.97.45 1.17.45 2.67 0 .76-.16 1.02t-.62.26m6.17-6.73.23 1.09q.42-.42.88-.78.47-.35.99-.6t1.11-.4q.59-.14 1.3-.14 1.13 0 2.01.39.88.38 1.46 1.08.59.69.89 1.66.31.96.31 2.12v8.82h-3.34V76.1q0-1.26-.58-1.96-.58-.69-1.77-.69-.86 0-1.62.39-.75.39-1.43 1.06v10.02h-3.33V71.07h2.04q.65 0 .85.61m21.03 9.14v-6.21q-.57-.69-1.23-.98-.67-.28-1.44-.28-.76 0-1.37.28-.6.29-1.04.86-.43.57-.66 1.46-.23.88-.23 2.09t.2 2.05q.2.85.56 1.38t.89.77 1.18.24q1.03 0 1.76-.44.73-.43 1.38-1.22m0-15.96h3.34v20.06h-2.04q-.66 0-.84-.61l-.28-1.33q-.84.95-1.93 1.55-1.08.59-2.53.59-1.13 0-2.08-.47-.94-.47-1.62-1.37-.69-.9-1.06-2.22t-.37-3.02q0-1.54.42-2.87.42-1.32 1.2-2.29t1.88-1.52q1.09-.55 2.45-.55 1.17 0 1.99.37.82.36 1.47.98zm13.95 16.48v-2.33q-1.45.06-2.43.25-.99.18-1.58.46-.6.29-.85.66-.26.38-.26.83 0 .88.52 1.25.52.38 1.36.38 1.02 0 1.77-.37t1.47-1.13m-7.05-7.27-.6-1.07q2.39-2.19 5.76-2.19 1.21 0 2.17.4t1.62 1.11 1.01 1.69q.34.99.34 2.16v8.75h-1.51q-.47 0-.73-.14t-.41-.58l-.29-.99q-.53.47-1.03.83-.5.35-1.04.6-.54.24-1.15.37-.62.13-1.36.13-.88 0-1.62-.24t-1.28-.71-.84-1.17q-.3-.71-.3-1.64 0-.52.18-1.04.17-.52.57-1 .4-.47 1.04-.89.63-.41 1.55-.73.93-.31 2.16-.5 1.23-.2 2.81-.24v-.81q0-1.39-.6-2.06-.59-.66-1.71-.66-.81 0-1.35.18-.53.19-.93.43-.41.24-.74.42-.33.19-.74.19-.35 0-.59-.18t-.39-.42m32.83-5.78h-8.67v5.78h7.32v2.9h-7.32v7.95h-3.64V65.4h12.31zm9.76 13.05v-2.33q-1.44.06-2.43.25-.98.18-1.58.46-.59.29-.85.66-.25.38-.25.83 0 .88.51 1.25.52.38 1.36.38 1.03 0 1.78-.37t1.46-1.13m-7.05-7.27-.59-1.07q2.39-2.19 5.75-2.19 1.22 0 2.17.4.96.4 1.62 1.11.67.71 1.01 1.69.34.99.34 2.16v8.75h-1.51q-.47 0-.73-.14-.25-.14-.4-.58l-.3-.99q-.52.47-1.02.83-.5.35-1.04.6-.54.24-1.16.37-.61.13-1.35.13-.88 0-1.62-.24-.75-.24-1.29-.71t-.83-1.17q-.3-.71-.3-1.64 0-.52.17-1.04.18-.52.58-1 .4-.47 1.03-.89.64-.41 1.56-.73.93-.31 2.15-.5 1.23-.2 2.81-.24v-.81q0-1.39-.59-2.06-.6-.66-1.72-.66-.81 0-1.34.18-.53.19-.94.43-.4.24-.73.42-.33.19-.74.19-.35 0-.59-.18-.25-.18-.4-.42m16.33-2.39.23 1.09q.41-.42.88-.78.47-.35.99-.6t1.11-.4q.59-.14 1.29-.14 1.14 0 2.02.39.87.38 1.46 1.08.59.69.89 1.66.31.96.31 2.12v8.82h-3.34V76.1q0-1.26-.58-1.96-.58-.69-1.77-.69-.86 0-1.62.39-.75.39-1.43 1.06v10.02h-3.33V71.07h2.04q.64 0 .85.61m21.03 9.14v-6.21q-.57-.69-1.24-.98-.66-.28-1.43-.28-.76 0-1.37.28-.6.29-1.04.86-.43.57-.66 1.46-.23.88-.23 2.09t.2 2.05q.19.85.56 1.38.36.53.89.77t1.17.24q1.04 0 1.77-.44.73-.43 1.38-1.22m0-15.96h3.33v20.06h-2.04q-.66 0-.83-.61l-.29-1.33q-.83.95-1.92 1.55-1.09.59-2.53.59-1.13 0-2.08-.47-.94-.47-1.63-1.37-.68-.9-1.05-2.22t-.37-3.02q0-1.54.42-2.87.42-1.32 1.2-2.29t1.88-1.52q1.09-.55 2.45-.55 1.16 0 1.99.37.82.36 1.47.98zm12.76 5.99q1.54 0 2.8.5t2.16 1.42 1.38 2.24q.49 1.32.49 2.96t-.49 2.97q-.48 1.32-1.38 2.25t-2.16 1.43-2.8.5q-1.56 0-2.83-.5-1.26-.5-2.16-1.43t-1.39-2.25q-.5-1.33-.5-2.97t.5-2.96q.49-1.32 1.39-2.24t2.16-1.42q1.27-.5 2.83-.5m0 11.71q1.72 0 2.55-1.16.84-1.16.84-3.41 0-2.24-.84-3.41-.83-1.18-2.55-1.18-1.76 0-2.6 1.19-.85 1.18-.85 3.4 0 2.23.85 3.4.84 1.17 2.6 1.17m12.71 2.36h-3.33V71.07h2.04q.65 0 .85.61l.21 1.02q.37-.4.77-.74.39-.34.85-.58.45-.24.97-.39.52-.14 1.14-.14 1.31 0 2.15.71.85.71 1.27 1.89.32-.69.81-1.19.48-.49 1.06-.8t1.24-.46q.65-.15 1.31-.15 1.15 0 2.04.35t1.5 1.03q.61.67.93 1.65.31.97.31 2.22v8.82h-3.33V76.1q0-1.32-.58-1.99-.58-.66-1.7-.66-.52 0-.96.17-.43.18-.76.51-.34.33-.52.83-.19.5-.19 1.14v8.82h-3.35V76.1q0-1.39-.56-2.02t-1.64-.63q-.73 0-1.36.35-.63.36-1.17.98z"/></svg>