<svg xmlns="http://www.w3.org/2000/svg" width="600" height="300" viewBox="0 0 600 300"><rect width="100%" height="100%" fill="#FFA500"/><path fill="#FFFFFF" d="M133.045 148.24q0 1.75-.58 3.21-.59 1.46-1.64 2.52-1.06 1.05-2.54 1.64-1.49.58-3.3.58h-6.07v-15.91h6.07q1.81 0 3.3.59 1.48.59 2.54 1.64 1.05 1.05 1.64 2.52.58 1.46.58 3.21m-3.04 0q0-1.31-.34-2.35-.35-1.04-1-1.76-.66-.72-1.59-1.11-.93-.38-2.09-.38h-3.1v11.2h3.1q1.16 0 2.09-.39.93-.38 1.59-1.1.65-.72 1-1.76.34-1.04.34-2.35m5.3-3.34h2.73v11.29h-2.73zm3.11-3.28q0 .35-.15.66-.14.3-.38.53-.23.24-.55.37-.32.14-.68.14t-.67-.14q-.31-.13-.54-.37-.23-.23-.37-.53-.14-.31-.14-.66 0-.37.14-.69t.37-.55.54-.37q.31-.13.67-.13t.68.13q.32.14.55.37.24.23.38.55.15.32.15.69m8.36 11.65v-1.9q-1.18.06-1.98.21-.81.14-1.29.38-.48.23-.69.53-.21.31-.21.68 0 .71.42 1.02t1.11.31q.83 0 1.44-.31.61-.3 1.2-.92m-5.75-5.92-.48-.87q1.95-1.78 4.69-1.78.99 0 1.77.32t1.32.9.82 1.38q.28.81.28 1.76v7.13h-1.23q-.39 0-.6-.12-.21-.11-.33-.46l-.24-.82q-.43.39-.84.68-.4.29-.84.49t-.94.3q-.5.11-1.11.11-.71 0-1.32-.2-.6-.19-1.04-.57-.44-.39-.69-.96-.24-.57-.24-1.33 0-.43.14-.85.15-.43.47-.81.33-.39.84-.73.52-.34 1.27-.59.76-.26 1.76-.42 1-.15 2.29-.19v-.66q0-1.13-.49-1.68-.48-.54-1.39-.54-.66 0-1.1.15-.43.16-.76.35t-.6.35q-.27.15-.6.15-.29 0-.49-.15-.19-.15-.32-.34m15.07 2.92q.51 0 .88-.14.38-.13.63-.37.24-.25.37-.59t.13-.75q0-.83-.5-1.32t-1.51-.49q-1 0-1.5.49t-.5 1.32q0 .4.13.74t.37.59q.25.25.63.38.38.14.87.14m3.07 6.43q0-.33-.19-.54-.2-.21-.54-.33-.34-.11-.8-.17-.46-.05-.97-.08t-1.05-.05q-.55-.02-1.07-.09-.45.26-.73.6t-.28.79q0 .29.15.55t.47.45q.33.19.84.29.52.1 1.27.1.76 0 1.31-.11.55-.12.91-.32.35-.2.52-.48.16-.28.16-.61m-.54-11.41h3.25v1.01q0 .49-.58.6l-1.02.18q.24.58.24 1.28 0 .83-.34 1.51t-.93 1.15-1.4.73-1.75.26q-.33 0-.63-.03-.31-.04-.61-.09-.53.32-.53.71 0 .35.32.5.31.16.83.23.51.07 1.17.08.66.02 1.36.07.69.06 1.35.2.66.13 1.18.43.51.3.83.81.31.51.31 1.31 0 .75-.37 1.46-.37.7-1.06 1.25-.7.55-1.72.89-1.02.33-2.32.33-1.27 0-2.22-.25-.94-.24-1.57-.66-.63-.41-.94-.95-.3-.54-.3-1.12 0-.79.48-1.33.47-.53 1.31-.85-.45-.23-.72-.61-.26-.39-.26-1.02 0-.25.09-.52.1-.27.28-.53.18-.27.46-.5.27-.24.64-.43-.85-.46-1.34-1.23t-.49-1.8q0-.84.33-1.51.34-.68.94-1.16t1.42-.73 1.78-.25q.73 0 1.37.14.64.15 1.16.44m7.36.3.17 1.27q.53-1.01 1.25-1.59.73-.57 1.72-.57.78 0 1.25.34l-.17 2.03q-.06.2-.16.28-.11.08-.28.08t-.49-.05q-.33-.06-.64-.06-.45 0-.8.14-.35.13-.63.38-.28.24-.5.6-.21.35-.4.8v6.95h-2.71V144.9h1.59q.42 0 .58.15.17.15.22.54m11.77 7.68v-1.9q-1.17.06-1.98.21-.8.14-1.28.38-.49.23-.7.53-.21.31-.21.68 0 .71.43 1.02.42.31 1.1.31.84 0 1.45-.31.61-.3 1.19-.92m-5.74-5.92-.48-.87q1.94-1.78 4.68-1.78.99 0 1.77.32.79.32 1.32.9.54.58.82 1.38.28.81.28 1.76v7.13h-1.23q-.38 0-.59-.12-.21-.11-.33-.46l-.24-.82q-.43.39-.84.68t-.85.49-.94.3q-.5.11-1.1.11-.72 0-1.32-.2-.61-.19-1.05-.57-.44-.39-.68-.96t-.24-1.33q0-.43.14-.85.14-.43.47-.81.32-.39.84-.73t1.27-.59q.75-.26 1.76-.42 1-.15 2.28-.19v-.66q0-1.13-.48-1.68-.48-.54-1.4-.54-.66 0-1.09.15-.44.16-.77.35t-.6.35q-.27.15-.6.15-.28 0-.48-.15t-.32-.34m13.66 8.84h-2.71V144.9h1.66q.53 0 .69.5l.18.83q.29-.33.62-.6.32-.27.69-.47t.79-.32q.43-.11.93-.11 1.07 0 1.76.58.68.57 1.03 1.53.26-.56.66-.96.39-.4.86-.66.48-.25 1.01-.37t1.07-.12q.94 0 1.66.28.73.29 1.23.84.49.55.75 1.34t.26 1.82v7.18h-2.72v-7.18q0-1.08-.47-1.63-.48-.54-1.39-.54-.42 0-.77.14-.36.15-.63.42-.27.26-.42.67-.16.41-.16.94v7.18h-2.73v-7.18q0-1.14-.45-1.65-.46-.52-1.34-.52-.59 0-1.1.29-.52.29-.96.8zm21.67-2.92v-1.9q-1.17.06-1.98.21-.8.14-1.28.38-.49.23-.7.53-.21.31-.21.68 0 .71.43 1.02.42.31 1.1.31.84 0 1.45-.31.61-.3 1.19-.92m-5.74-5.92-.48-.87q1.94-1.78 4.68-1.78.99 0 1.77.32.79.32 1.32.9.54.58.82 1.38.28.81.28 1.76v7.13h-1.23q-.38 0-.59-.12-.21-.11-.33-.46l-.24-.82q-.43.39-.84.68t-.85.49-.94.3q-.5.11-1.1.11-.72 0-1.32-.2-.61-.19-1.05-.57-.44-.39-.68-.96t-.24-1.33q0-.43.14-.85.14-.43.47-.81.32-.39.84-.73t1.27-.59q.75-.26 1.76-.42 1-.15 2.28-.19v-.66q0-1.13-.48-1.68-.48-.54-1.4-.54-.66 0-1.09.15-.44.16-.77.35t-.6.35q-.27.15-.6.15-.28 0-.48-.15t-.32-.34m27.64 5.09q.25 0 .43.19l1.17 1.26q-.97 1.2-2.38 1.84-1.42.64-3.4.64-1.77 0-3.18-.61-1.41-.6-2.41-1.68-1.01-1.08-1.54-2.58-.53-1.49-.53-3.26 0-1.8.57-3.29t1.61-2.56q1.04-1.08 2.48-1.68t3.19-.6q1.74 0 3.09.57 1.34.57 2.29 1.5l-.99 1.37q-.09.13-.22.23-.14.1-.38.1-.17 0-.35-.09-.17-.1-.38-.23-.21-.14-.48-.31-.28-.16-.64-.3-.37-.14-.84-.23-.48-.09-1.11-.09-1.07 0-1.95.38-.89.38-1.53 1.1-.63.72-.99 1.76-.35 1.04-.35 2.37 0 1.34.38 2.38.38 1.05 1.03 1.76.65.72 1.53 1.1t1.89.38q.61 0 1.1-.07.49-.06.9-.21.41-.14.78-.37.37-.22.73-.55.11-.1.23-.16t.25-.06m5.35-3.19h5.13q0-.53-.15-1-.15-.46-.45-.82-.29-.35-.75-.55t-1.06-.2q-1.18 0-1.86.67-.67.67-.86 1.9m6.93 1.64h-6.98q.06.87.3 1.5.25.63.64 1.04.4.42.94.62.55.2 1.21.2t1.14-.15q.47-.15.83-.34t.63-.34q.27-.16.52-.16.34 0 .51.26l.78.99q-.45.52-1.01.88-.57.36-1.18.57-.61.22-1.24.31-.63.08-1.23.08-1.17 0-2.18-.39-1.02-.39-1.76-1.15-.75-.77-1.18-1.89-.43-1.13-.43-2.61 0-1.16.37-2.18.38-1.01 1.08-1.77.69-.75 1.7-1.19t2.27-.44q1.07 0 1.97.34t1.55.99q.65.66 1.02 1.61t.37 2.17q0 .62-.13.83-.14.22-.51.22m5.03-5.49.18.89q.35-.34.73-.63.37-.29.8-.5.42-.2.91-.32.48-.11 1.05-.11.93 0 1.64.31.72.32 1.19.88.48.57.73 1.35.25.79.25 1.74v7.18h-2.72v-7.18q0-1.04-.47-1.6-.48-.57-1.44-.57-.71 0-1.32.32-.62.32-1.17.87v8.16h-2.72V144.9h1.66q.53 0 .7.5m13.81 10.97q-1.47 0-2.26-.83-.78-.83-.78-2.3v-6.3h-1.16q-.22 0-.37-.14-.16-.15-.16-.43v-1.08l1.82-.3.57-3.08q.06-.22.21-.34t.4-.12h1.4V145h3.02v1.94h-3.02v6.12q0 .52.26.82t.71.3q.25 0 .43-.06.17-.06.29-.13.13-.07.23-.13t.2-.06q.12 0 .19.06.08.06.17.18l.81 1.33q-.59.49-1.36.74-.77.26-1.6.26m6.82-10.78.17 1.27q.53-1.01 1.25-1.59.73-.57 1.72-.57.78 0 1.25.34l-.17 2.03q-.06.2-.16.28-.11.08-.28.08t-.49-.05q-.33-.06-.64-.06-.45 0-.8.14-.35.13-.63.38-.28.24-.5.6-.21.35-.4.8v6.95h-2.71V144.9h1.59q.42 0 .58.15.17.15.22.54m11.77 7.68v-1.9q-1.17.06-1.98.21-.8.14-1.28.38-.49.23-.7.53-.21.31-.21.68 0 .71.43 1.02.42.31 1.1.31.84 0 1.45-.31.61-.3 1.19-.92m-5.74-5.92-.48-.87q1.94-1.78 4.68-1.78.99 0 1.77.32.79.32 1.32.9.54.58.82 1.38.28.81.28 1.76v7.13h-1.23q-.38 0-.59-.12-.21-.11-.33-.46l-.24-.82q-.43.39-.84.68t-.85.49-.94.3q-.5.11-1.1.11-.72 0-1.32-.2-.61-.19-1.05-.57-.44-.39-.68-.96t-.24-1.33q0-.43.14-.85.14-.43.47-.81.32-.39.84-.73t1.27-.59q.75-.26 1.76-.42 1-.15 2.28-.19v-.66q0-1.13-.48-1.68-.48-.54-1.4-.54-.66 0-1.09.15-.44.16-.77.35t-.6.35q-.27.15-.6.15-.28 0-.48-.15t-.32-.34m10.98-7.51h2.72v16.35h-2.72zm5.52 5.06h2.73v11.29h-2.73zm3.1-3.28q0 .35-.14.66-.14.3-.38.53-.24.24-.55.37-.32.14-.69.14-.35 0-.66-.14-.32-.13-.55-.37-.23-.23-.36-.53-.14-.31-.14-.66 0-.37.14-.69.13-.32.36-.55t.55-.37q.31-.13.66-.13.37 0 .69.13.31.14.55.37t.38.55.14.69m10.51 3.28v1.13q0 .28-.1.56-.1.27-.26.45l-5.36 7.06h5.55v2.09h-8.71v-1.13q0-.19.09-.45t.26-.49l5.42-7.14h-5.45v-2.08zm7.96 8.37v-1.9q-1.17.06-1.98.21-.8.14-1.28.38-.49.23-.7.53-.21.31-.21.68 0 .71.43 1.02.42.31 1.1.31.84 0 1.45-.31.61-.3 1.19-.92m-5.74-5.92-.48-.87q1.94-1.78 4.68-1.78.99 0 1.77.32t1.32.9.82 1.38q.28.81.28 1.76v7.13h-1.23q-.38 0-.59-.12-.21-.11-.33-.46l-.24-.82q-.43.39-.84.68t-.85.49-.94.3q-.5.11-1.1.11-.72 0-1.32-.2-.61-.19-1.05-.57-.44-.39-.68-.96t-.24-1.33q0-.43.14-.85.14-.43.47-.81.32-.39.84-.73t1.27-.59q.75-.26 1.75-.42 1.01-.15 2.29-.19v-.66q0-1.13-.48-1.68-.49-.54-1.4-.54-.66 0-1.09.15-.44.16-.77.35t-.6.35q-.27.15-.6.15-.28 0-.48-.15t-.32-.34m18.03 5.5v-5.06q-.46-.56-1.01-.8-.54-.23-1.17-.23-.61 0-1.11.23-.49.24-.85.7-.35.47-.54 1.19-.18.72-.18 1.7 0 .99.16 1.68t.45 1.12q.3.43.73.63.43.19.96.19.84 0 1.44-.35.59-.35 1.12-1m0-13.01h2.72v16.35h-1.66q-.54 0-.69-.49l-.23-1.09q-.68.78-1.56 1.26-.89.48-2.07.48-.92 0-1.69-.38t-1.33-1.12q-.55-.73-.85-1.81-.31-1.07-.31-2.46 0-1.25.34-2.33t.98-1.87 1.53-1.24q.89-.44 2-.44.95 0 1.62.29.67.3 1.2.81zm10.39 4.89q1.26 0 2.29.41 1.03.4 1.76 1.15t1.12 1.83q.4 1.07.4 2.4 0 1.35-.4 2.43-.39 1.07-1.12 1.83t-1.76 1.17q-1.03.4-2.29.4t-2.29-.4q-1.04-.41-1.77-1.17t-1.13-1.83q-.4-1.08-.4-2.43 0-1.33.4-2.4.4-1.08 1.13-1.83t1.77-1.15q1.03-.41 2.29-.41m0 9.54q1.41 0 2.09-.95t.68-2.77q0-1.83-.68-2.79-.68-.95-2.09-.95-1.43 0-2.11.96-.69.96-.69 2.78 0 1.81.69 2.76.68.96 2.11.96m21.03-9.37h2.14l-4.48 11.29h-2.46l-4.48-11.29h2.25q.3 0 .51.15.2.14.27.36l2.18 6.03q.17.53.3 1.03.14.51.23 1.01.11-.5.25-1.01.13-.5.32-1.03l2.22-6.03q.07-.22.27-.36.2-.15.48-.15m11.08 1.23-.61.97q-.11.18-.23.25t-.31.07q-.2 0-.42-.11-.23-.11-.53-.24-.29-.14-.67-.25t-.9-.11q-.8 0-1.26.34t-.46.89q0 .36.24.61t.63.44q.39.18.88.33.5.15 1.01.33.51.17 1.01.4.49.22.88.57t.63.83q.23.48.23 1.17 0 .81-.29 1.5-.29.68-.86 1.18-.57.51-1.41.79-.85.28-1.95.28-.58 0-1.13-.11-.56-.1-1.07-.29t-.95-.44q-.43-.25-.76-.55l.63-1.03q.12-.19.28-.29.17-.1.42-.1t.48.14q.22.15.52.31.3.17.7.31t1.02.14q.48 0 .83-.11.34-.12.57-.31.22-.18.33-.43.1-.25.1-.51 0-.4-.23-.65-.24-.25-.63-.44t-.89-.34q-.5-.14-1.02-.32-.53-.18-1.03-.41-.5-.24-.89-.6t-.62-.89q-.24-.53-.24-1.28 0-.69.27-1.32.28-.63.81-1.09.54-.47 1.33-.75.8-.28 1.85-.28 1.16 0 2.12.38.96.39 1.59 1.02m22.07 2.11q0 1.75-.58 3.21-.59 1.46-1.64 2.52-1.06 1.05-2.54 1.64-1.49.58-3.3.58h-6.06v-15.91h6.06q1.81 0 3.3.59 1.48.59 2.54 1.64 1.05 1.05 1.64 2.52.58 1.46.58 3.21m-3.04 0q0-1.31-.34-2.35-.35-1.04-1-1.76-.66-.72-1.59-1.11-.93-.38-2.09-.38h-3.09v11.2h3.09q1.16 0 2.09-.39.93-.38 1.59-1.1.65-.72 1-1.76.34-1.04.34-2.35m5.31-3.34h2.72v11.29h-2.72zm3.1-3.28q0 .35-.15.66-.14.3-.37.53-.24.24-.56.37-.32.14-.68.14-.35 0-.67-.14-.31-.13-.54-.37-.23-.23-.37-.53-.14-.31-.14-.66 0-.37.14-.69t.37-.55.54-.37q.32-.13.67-.13.36 0 .68.13.32.14.56.37.23.23.37.55.15.32.15.69m9.9 4.51-.62.97q-.11.18-.23.25t-.31.07q-.2 0-.42-.11-.23-.11-.52-.24-.3-.14-.68-.25t-.9-.11q-.8 0-1.26.34-.45.34-.45.89 0 .36.23.61.24.25.63.44.39.18.89.33.49.15 1 .33.51.17 1.01.4.49.22.89.57.39.35.62.83.24.48.24 1.17 0 .81-.29 1.5-.29.68-.87 1.18-.57.51-1.41.79t-1.94.28q-.58 0-1.14-.11-.56-.1-1.07-.29t-.94-.44q-.44-.25-.77-.55l.63-1.03q.12-.19.29-.29.16-.1.41-.1.26 0 .48.14.23.15.52.31.3.17.7.31t1.02.14q.48 0 .83-.11.35-.12.57-.31.23-.18.33-.43.11-.25.11-.51 0-.4-.24-.65t-.63-.44-.89-.34q-.5-.14-1.02-.32t-1.02-.41q-.5-.24-.89-.6t-.63-.89-.24-1.28q0-.69.28-1.32.27-.63.81-1.09.53-.47 1.33-.75.79-.28 1.84-.28 1.17 0 2.12.38.96.39 1.6 1.02m5.93 10.24q-1.48 0-2.26-.83-.79-.83-.79-2.3v-6.3h-1.16q-.22 0-.37-.14-.15-.15-.15-.43v-1.08l1.81-.3.57-3.08q.06-.22.21-.34.16-.12.4-.12h1.41V145h3.01v1.94h-3.01v6.12q0 .52.26.82.25.3.7.3.26 0 .43-.06t.3-.13l.22-.13q.1-.06.2-.06.12 0 .2.06.07.06.16.18l.82 1.33q-.6.49-1.37.74-.77.26-1.59.26m6.82-10.78.16 1.27q.53-1.01 1.26-1.59.72-.57 1.71-.57.78 0 1.26.34l-.18 2.03q-.06.2-.16.28t-.28.08q-.17 0-.49-.05-.32-.06-.63-.06-.45 0-.81.14-.35.13-.63.38-.28.24-.49.6-.22.35-.4.8v6.95h-2.72V144.9h1.59q.42 0 .59.15.16.15.22.54m5.89-.69h2.73v11.29h-2.73zm3.1-3.28q0 .35-.14.66-.14.3-.38.53-.23.24-.55.37-.32.14-.69.14-.35 0-.66-.14-.31-.13-.55-.37-.23-.23-.36-.53-.14-.31-.14-.66 0-.37.14-.69.13-.32.36-.55.24-.23.55-.37.31-.13.66-.13.37 0 .69.13.32.14.55.37.24.23.38.55t.14.69m5.12 6.58v5.06q.46.57 1.01.8.54.23 1.15.23.62 0 1.12-.23.5-.22.86-.7.35-.48.53-1.22.19-.75.19-1.78 0-1.86-.61-2.69-.62-.83-1.78-.83-.78 0-1.36.36t-1.11 1m0-8.36v6.45q.68-.72 1.51-1.14t1.9-.42q.98 0 1.77.38.78.39 1.34 1.11.55.72.85 1.74.3 1.03.3 2.3 0 1.38-.34 2.5-.35 1.12-.98 1.92t-1.52 1.24q-.89.43-1.98.43-.53 0-.96-.1t-.79-.29-.67-.46q-.3-.27-.57-.6l-.12.76q-.07.29-.23.41t-.43.12h-1.8v-16.35zm16.77 5.06h2.72v11.29h-1.66q-.54 0-.68-.49l-.19-.91q-.69.71-1.53 1.14-.83.44-1.97.44-.92 0-1.63-.32-.71-.31-1.19-.88-.49-.57-.73-1.36-.25-.79-.25-1.73v-7.18h2.71v7.18q0 1.03.48 1.6.48.56 1.44.56.7 0 1.32-.31.61-.31 1.16-.86zm5.49 0h2.73v11.29h-2.73zm3.11-3.28q0 .35-.15.66-.14.3-.38.53-.23.24-.55.37-.32.14-.68.14t-.67-.14q-.31-.13-.54-.37-.24-.23-.37-.53-.14-.31-.14-.66 0-.37.14-.69.13-.32.37-.55.23-.23.54-.37.31-.13.67-.13t.68.13q.32.14.55.37.24.23.38.55.15.32.15.69m9.48 11.23v-5.06q-.46-.56-1.01-.8-.54-.23-1.17-.23-.62 0-1.11.23-.5.24-.85.7-.35.47-.54 1.19-.18.72-.18 1.7 0 .99.16 1.68.15.69.45 1.12t.73.63q.43.19.95.19.85 0 1.45-.35.59-.35 1.12-1m0-13.01h2.71v16.35h-1.66q-.54 0-.68-.49l-.23-1.09q-.68.78-1.57 1.26-.88.48-2.06.48-.92 0-1.69-.38t-1.33-1.12q-.55-.73-.86-1.81-.3-1.07-.3-2.46 0-1.25.34-2.33t.98-1.87 1.53-1.24q.89-.44 2-.44.95 0 1.62.29.67.3 1.2.81zm10.39 4.89q1.26 0 2.29.41 1.02.4 1.76 1.15.73.75 1.12 1.83.4 1.07.4 2.4 0 1.35-.4 2.43-.39 1.07-1.12 1.83-.74.76-1.76 1.17-1.03.4-2.29.4t-2.3-.4q-1.03-.41-1.76-1.17t-1.13-1.83q-.41-1.08-.41-2.43 0-1.33.41-2.4.4-1.08 1.13-1.83t1.76-1.15q1.04-.41 2.3-.41m0 9.54q1.41 0 2.09-.95.67-.95.67-2.77 0-1.83-.67-2.79-.68-.95-2.09-.95-1.43 0-2.11.96-.69.96-.69 2.78 0 1.81.69 2.76.68.96 2.11.96"/></svg>